<svg xmlns="http://www.w3.org/2000/svg" xmlns:xlink="http://www.w3.org/1999/xlink" contentStyleType="text/css" height="3450px" preserveAspectRatio="none" style="width:2493px;height:3450px;" version="1.1" viewBox="0 0 2493 3450" width="2493.75px" zoomAndPan="magnify"><title>Portabilidade de Cr&#233;dito - Open Finance Brasil (OFB)</title><defs><linearGradient id="g8t88a6bgox720" x1="50%" x2="50%" y1="0%" y2="100%"><stop offset="0%" stop-color="#FFFFFF"/><stop offset="100%" stop-color="#FFFFFF"/></linearGradient><filter height="300%" id="f8t88a6bgox72" width="300%" x="-1" y="-1"><feGaussianBlur result="blurOut" stdDeviation="2.0833333333333335"/><feColorMatrix in="blurOut" result="blurOut2" type="matrix" values="0 0 0 0 0 0 0 0 0 0 0 0 0 0 0 0 0 0 .4 0"/><feOffset dx="4.166666666666667" dy="4.166666666666667" in="blurOut2" result="blurOut3"/><feBlend in="SourceGraphic" in2="blurOut3" mode="normal"/></filter><linearGradient id="g8t88a6bgox721" x1="50%" x2="50%" y1="0%" y2="100%"><stop offset="0%" stop-color="#4DABF5"/><stop offset="100%" stop-color="#2196F3"/></linearGradient><linearGradient id="g8t88a6bgox722" x1="50%" x2="50%" y1="0%" y2="100%"><stop offset="0%" stop-color="#B052C0"/><stop offset="100%" stop-color="#9C27B0"/></linearGradient></defs><g><rect fill="url(#g8t88a6bgox720)" height="106.0872" id="_title" rx="4.1667" ry="4.1667" style="stroke:#CCCCCC;stroke-width:1.0416666666666667;" width="1170.9167" x="682.4397" y="20.8333"/><text fill="#2196F3" font-family="Verdana" font-size="20.8333" font-weight="bold" lengthAdjust="spacing" textLength="619.6187" x="958.0887" y="56.838">Portabilidade de Cr&#233;dito - Open Finance Brasil (OFB)</text><text fill="#2196F3" font-family="Verdana" font-size="20.8333" font-weight="bold" lengthAdjust="spacing" textLength="1130.3304" x="699.1063" y="81.0893">Fluxo completo de efetiva&#231;&#227;o da portabilidade considerando o aceite compuls&#243;rio no quarto dia</text><text fill="#2196F3" font-family="Verdana" font-size="20.8333" font-weight="bold" lengthAdjust="spacing" textLength="845.4285" x="848.8103" y="105.3406">e considerando o fluxo do sistema de acompanhamento de pagamentos</text><rect fill="url(#g8t88a6bgox720)" filter="url(#f8t88a6bgox72)" height="137.4023" rx="4.1667" ry="4.1667" style="stroke:#2196F3;stroke-width:1.0416666666666667;" width="705.0517" x="442.8151" y="308.1055"/><rect fill="url(#g8t88a6bgox720)" filter="url(#f8t88a6bgox72)" height="251.888" rx="4.1667" ry="4.1667" style="stroke:#2196F3;stroke-width:1.0416666666666667;" width="705.0517" x="442.8151" y="460.0911"/><rect fill="url(#g8t88a6bgox720)" filter="url(#f8t88a6bgox72)" height="240.3971" rx="4.1667" ry="4.1667" style="stroke:#2196F3;stroke-width:1.0416666666666667;" width="1026.7283" x="442.8151" y="804.6224"/><rect fill="url(#g8t88a6bgox720)" filter="url(#f8t88a6bgox72)" height="137.4023" rx="4.1667" ry="4.1667" style="stroke:#2196F3;stroke-width:1.0416666666666667;" width="636.7238" x="20.8333" y="1333.3659"/><rect fill="url(#g8t88a6bgox720)" filter="url(#f8t88a6bgox72)" height="225.8464" rx="4.1667" ry="4.1667" style="stroke:#2196F3;stroke-width:1.0416666666666667;" width="852.2675" x="442.8151" y="1485.3516"/><rect fill="url(#g8t88a6bgox720)" filter="url(#f8t88a6bgox72)" height="441.3086" rx="4.1667" ry="4.1667" style="stroke:#2196F3;stroke-width:1.0416666666666667;" width="1489.8417" x="20.8333" y="1725.7813"/><rect fill="url(#g8t88a6bgox720)" filter="url(#f8t88a6bgox72)" height="325.7813" rx="4.1667" ry="4.1667" style="stroke:#2196F3;stroke-width:1.0416666666666667;" width="904.5319" x="442.8151" y="2181.6732"/><rect fill="url(#g8t88a6bgox720)" filter="url(#f8t88a6bgox72)" height="146.7773" rx="4.1667" ry="4.1667" style="stroke:#2196F3;stroke-width:1.0416666666666667;" width="1003.0731" x="442.8151" y="2522.0378"/><rect fill="url(#g8t88a6bgox720)" filter="url(#f8t88a6bgox72)" height="541.2435" rx="4.1667" ry="4.1667" style="stroke:#2196F3;stroke-width:1.0416666666666667;" width="1868.9494" x="442.8151" y="2683.3984"/><line style="stroke:#CCCCCC;stroke-width:1.0416666666666667;stroke-dasharray:5.0,5.0;" x1="66.6667" x2="66.6667" y1="240.4297" y2="3342.2852"/><line style="stroke:#CCCCCC;stroke-width:1.0416666666666667;stroke-dasharray:5.0,5.0;" x1="550.1068" x2="550.1068" y1="240.4297" y2="3342.2852"/><line style="stroke:#CCCCCC;stroke-width:1.0416666666666667;stroke-dasharray:5.0,5.0;" x1="1041.4215" x2="1041.4215" y1="240.4297" y2="3342.2852"/><line style="stroke:#CCCCCC;stroke-width:1.0416666666666667;stroke-dasharray:5.0,5.0;" x1="1507.4473" x2="1507.4473" y1="240.4297" y2="3342.2852"/><line style="stroke:#CCCCCC;stroke-width:1.0416666666666667;stroke-dasharray:5.0,5.0;" x1="2093.4662" x2="2093.4662" y1="240.4297" y2="3342.2852"/><line style="stroke:#CCCCCC;stroke-width:1.0416666666666667;stroke-dasharray:5.0,5.0;" x1="2415.9312" x2="2415.9312" y1="240.4297" y2="3342.2852"/><text fill="#222222" font-family="Verdana" font-size="12.5" lengthAdjust="spacing" textLength="43.8782" x="41.6667" y="227.065">Cliente</text><ellipse cx="66.7308" cy="147.7539" fill="url(#g8t88a6bgox721)" filter="url(#f8t88a6bgox72)" rx="8.3333" ry="8.3333" style="stroke:#2196F3;stroke-width:1.0416666666666667;"/><path d="M66.7308,156.0872 L66.7308,184.2122 M53.1891,164.4206 L80.2724,164.4206 M66.7308,184.2122 L53.1891,199.8372 M66.7308,184.2122 L80.2724,199.8372 " fill="none" filter="url(#f8t88a6bgox72)" style="stroke:#2196F3;stroke-width:1.0416666666666667;"/><text fill="#222222" font-family="Verdana" font-size="12.5" lengthAdjust="spacing" textLength="43.8782" x="41.6667" y="3363.2629">Cliente</text><ellipse cx="66.7308" cy="3386.0026" fill="url(#g8t88a6bgox721)" filter="url(#f8t88a6bgox72)" rx="8.3333" ry="8.3333" style="stroke:#2196F3;stroke-width:1.0416666666666667;"/><path d="M66.7308,3394.3359 L66.7308,3422.4609 M53.1891,3402.6693 L80.2724,3402.6693 M66.7308,3422.4609 L53.1891,3438.0859 M66.7308,3422.4609 L80.2724,3438.0859 " fill="none" filter="url(#f8t88a6bgox72)" style="stroke:#2196F3;stroke-width:1.0416666666666667;"/><rect fill="url(#g8t88a6bgox721)" filter="url(#f8t88a6bgox72)" height="64.5182" rx="4.1667" ry="4.1667" style="stroke:#2196F3;stroke-width:1.0416666666666667;" width="107.4504" x="494.8985" y="171.7448"/><text fill="#FFFFFF" font-family="Verdana" font-size="12.5" lengthAdjust="spacing" textLength="64.9719" x="514.151" y="201.0559">Institui&#231;&#227;o</text><text fill="#FFFFFF" font-family="Verdana" font-size="12.5" lengthAdjust="spacing" textLength="72.0337" x="512.6068" y="215.6067">Proponente</text><rect fill="url(#g8t88a6bgox721)" filter="url(#f8t88a6bgox72)" height="64.5182" rx="4.1667" ry="4.1667" style="stroke:#2196F3;stroke-width:1.0416666666666667;" width="107.4504" x="494.8985" y="3341.2435"/><text fill="#FFFFFF" font-family="Verdana" font-size="12.5" lengthAdjust="spacing" textLength="64.9719" x="514.151" y="3370.5546">Institui&#231;&#227;o</text><text fill="#FFFFFF" font-family="Verdana" font-size="12.5" lengthAdjust="spacing" textLength="72.0337" x="512.6068" y="3385.1054">Proponente</text><rect fill="url(#g8t88a6bgox721)" filter="url(#f8t88a6bgox72)" height="64.5182" rx="4.1667" ry="4.1667" style="stroke:#2196F3;stroke-width:1.0416666666666667;" width="104.362" x="988.2965" y="171.7448"/><text fill="#FFFFFF" font-family="Verdana" font-size="12.5" lengthAdjust="spacing" textLength="64.9719" x="1006.0048" y="201.0559">Institui&#231;&#227;o</text><text fill="#FFFFFF" font-family="Verdana" font-size="12.5" lengthAdjust="spacing" textLength="49.939" x="1015.508" y="215.6067">Credora</text><rect fill="url(#g8t88a6bgox721)" filter="url(#f8t88a6bgox72)" height="64.5182" rx="4.1667" ry="4.1667" style="stroke:#2196F3;stroke-width:1.0416666666666667;" width="104.362" x="988.2965" y="3341.2435"/><text fill="#FFFFFF" font-family="Verdana" font-size="12.5" lengthAdjust="spacing" textLength="64.9719" x="1006.0048" y="3370.5546">Institui&#231;&#227;o</text><text fill="#FFFFFF" font-family="Verdana" font-size="12.5" lengthAdjust="spacing" textLength="49.939" x="1015.508" y="3385.1054">Credora</text><rect fill="url(#g8t88a6bgox721)" filter="url(#f8t88a6bgox72)" height="64.5182" rx="4.1667" ry="4.1667" style="stroke:#2196F3;stroke-width:1.0416666666666667;" width="328.715" x="1341.8223" y="171.7448"/><text fill="#FFFFFF" font-family="Verdana" font-size="12.5" lengthAdjust="spacing" textLength="289.325" x="1359.5306" y="201.0559">Sistema de acompanhamento de pagamentos</text><text fill="#FFFFFF" font-family="Verdana" font-size="12.5" lengthAdjust="spacing" textLength="49.939" x="1481.2103" y="215.6067">Credora</text><rect fill="url(#g8t88a6bgox721)" filter="url(#f8t88a6bgox72)" height="64.5182" rx="4.1667" ry="4.1667" style="stroke:#2196F3;stroke-width:1.0416666666666667;" width="328.715" x="1341.8223" y="3341.2435"/><text fill="#FFFFFF" font-family="Verdana" font-size="12.5" lengthAdjust="spacing" textLength="289.325" x="1359.5306" y="3370.5546">Sistema de acompanhamento de pagamentos</text><text fill="#FFFFFF" font-family="Verdana" font-size="12.5" lengthAdjust="spacing" textLength="49.939" x="1481.2103" y="3385.1054">Credora</text><rect fill="url(#g8t88a6bgox721)" filter="url(#f8t88a6bgox72)" height="64.5182" rx="4.1667" ry="4.1667" style="stroke:#2196F3;stroke-width:1.0416666666666667;" width="328.715" x="1927.8412" y="171.7448"/><text fill="#FFFFFF" font-family="Verdana" font-size="12.5" lengthAdjust="spacing" textLength="289.325" x="1945.5495" y="201.0559">Sistema de acompanhamento de pagamentos</text><text fill="#FFFFFF" font-family="Verdana" font-size="12.5" lengthAdjust="spacing" textLength="72.0337" x="2056.1818" y="215.6067">Proponente</text><rect fill="url(#g8t88a6bgox721)" filter="url(#f8t88a6bgox72)" height="64.5182" rx="4.1667" ry="4.1667" style="stroke:#2196F3;stroke-width:1.0416666666666667;" width="328.715" x="1927.8412" y="3341.2435"/><text fill="#FFFFFF" font-family="Verdana" font-size="12.5" lengthAdjust="spacing" textLength="289.325" x="1945.5495" y="3370.5546">Sistema de acompanhamento de pagamentos</text><text fill="#FFFFFF" font-family="Verdana" font-size="12.5" lengthAdjust="spacing" textLength="72.0337" x="2056.1818" y="3385.1054">Proponente</text><rect fill="url(#g8t88a6bgox721)" filter="url(#f8t88a6bgox72)" height="49.9674" rx="4.1667" ry="4.1667" style="stroke:#2196F3;stroke-width:1.0416666666666667;" width="122.9899" x="2353.4312" y="186.2956"/><text fill="#FFFFFF" font-family="Verdana" font-size="12.5" lengthAdjust="spacing" textLength="87.5732" x="2371.1395" y="215.6067">OFB Estrutura</text><rect fill="url(#g8t88a6bgox721)" filter="url(#f8t88a6bgox72)" height="49.9674" rx="4.1667" ry="4.1667" style="stroke:#2196F3;stroke-width:1.0416666666666667;" width="122.9899" x="2353.4312" y="3341.2435"/><text fill="#FFFFFF" font-family="Verdana" font-size="12.5" lengthAdjust="spacing" textLength="87.5732" x="2371.1395" y="3370.5546">OFB Estrutura</text><polygon fill="#2196F3" points="537.6862,288.3138,548.1028,292.4805,537.6862,296.6471,541.8528,292.4805" style="stroke:#2196F3;stroke-width:1.0416666666666667;"/><line style="stroke:#2196F3;stroke-width:3.125;" x1="66.7308" x2="543.9362" y1="292.4805" y2="292.4805"/><text fill="#222222" font-family="Verdana" font-size="12.5" lengthAdjust="spacing" textLength="319.3604" x="84.4391" y="277.0325">Verifica disponibilidade de portabilidade de cr&#233;dito</text><path d="M446.9818,308.1055 L789.6861,308.1055 L789.6861,335.1563 L779.2694,345.5729 L442.8151,345.5729 L442.8151,312.2721 A4.1667,4.1667 0 0 1 446.9818,308.1055 " fill="#FFFFFF" style="stroke:#666666;stroke-width:1.0416666666666667;"/><rect fill="none" height="137.4023" rx="4.1667" ry="4.1667" style="stroke:#2196F3;stroke-width:1.0416666666666667;" width="705.0517" x="442.8151" y="308.1055"/><text fill="#9C27B0" font-family="Verdana" font-size="12.5" font-weight="bold" lengthAdjust="spacing" textLength="279.1626" x="468.8568" y="331.1666">Etapa para valida&#231;&#227;o do consentimento</text><polygon fill="#2196F3" points="1029.54,383.0404,1039.9567,387.207,1029.54,391.3737,1033.7067,387.207" style="stroke:#2196F3;stroke-width:1.0416666666666667;"/><line style="stroke:#2196F3;stroke-width:3.125;" x1="550.1862" x2="1035.79" y1="387.207" y2="387.207"/><text fill="#222222" font-family="Verdana" font-size="12.5" lengthAdjust="spacing" textLength="389.9597" x="567.8945" y="371.759">Consulta permissions do consentimento fornecido pelo cliente</text><polygon fill="#2196F3" points="561.6445,433.0078,551.2278,437.1745,561.6445,441.3411,557.4778,437.1745" style="stroke:#2196F3;stroke-width:1.0416666666666667;"/><line style="stroke:#2196F3;stroke-width:3.125;" x1="555.3945" x2="1040.9983" y1="437.1745" y2="437.1745"/><text fill="#222222" font-family="Verdana" font-size="12.5" lengthAdjust="spacing" textLength="386.5784" x="578.3112" y="421.7265">Retorna dados a respeito do consentimento dado pelo cliente</text><path d="M446.9818,460.0911 L863.1602,460.0911 L863.1602,487.1419 L852.7435,497.5586 L442.8151,497.5586 L442.8151,464.2578 A4.1667,4.1667 0 0 1 446.9818,460.0911 " fill="#FFFFFF" style="stroke:#666666;stroke-width:1.0416666666666667;"/><rect fill="none" height="251.888" rx="4.1667" ry="4.1667" style="stroke:#2196F3;stroke-width:1.0416666666666667;" width="705.0517" x="442.8151" y="460.0911"/><text fill="#9C27B0" font-family="Verdana" font-size="12.5" font-weight="bold" lengthAdjust="spacing" textLength="352.6367" x="468.8568" y="483.1523">Etapa para consulta dos contratos de empr&#233;stimo</text><polygon fill="#2196F3" points="1029.54,535.026,1039.9567,539.1927,1029.54,543.3594,1033.7067,539.1927" style="stroke:#2196F3;stroke-width:1.0416666666666667;"/><line style="stroke:#2196F3;stroke-width:3.125;" x1="550.1862" x2="1035.79" y1="539.1927" y2="539.1927"/><text fill="#222222" font-family="Verdana" font-size="12.5" lengthAdjust="spacing" textLength="310.2356" x="567.8945" y="523.7447">Solicita n&#250;mero de contratos vinculado ao cliente</text><polygon fill="#2196F3" points="561.6445,584.9935,551.2278,589.1602,561.6445,593.3268,557.4778,589.1602" style="stroke:#2196F3;stroke-width:1.0416666666666667;"/><line style="stroke:#2196F3;stroke-width:3.125;" x1="555.3945" x2="1040.9983" y1="589.1602" y2="589.1602"/><text fill="#222222" font-family="Verdana" font-size="12.5" lengthAdjust="spacing" textLength="198.9868" x="578.3112" y="573.7122">Contratos realizado pelo cliente</text><polygon fill="#2196F3" points="1029.54,649.5117,1039.9567,653.6784,1029.54,657.8451,1033.7067,653.6784" style="stroke:#2196F3;stroke-width:1.0416666666666667;"/><line style="stroke:#2196F3;stroke-width:3.125;" x1="550.1862" x2="1035.79" y1="653.6784" y2="653.6784"/><text fill="#222222" font-family="Verdana" font-size="12.5" lengthAdjust="spacing" textLength="226.2329" x="567.8945" y="623.6796">Solicita detalhamento dos contratos</text><text fill="#222222" font-family="Verdana" font-size="12.5" lengthAdjust="spacing" textLength="247.9919" x="567.8945" y="638.2304">OBS. Consulta em 3 endpoints distintos</text><polygon fill="#2196F3" points="561.6445,699.4792,551.2278,703.6458,561.6445,707.8125,557.4778,703.6458" style="stroke:#2196F3;stroke-width:1.0416666666666667;"/><line style="stroke:#2196F3;stroke-width:3.125;" x1="555.3945" x2="1040.9983" y1="703.6458" y2="703.6458"/><text fill="#222222" font-family="Verdana" font-size="12.5" lengthAdjust="spacing" textLength="325.1709" x="578.3112" y="688.1978">Retorna os detalhamentos dos contratos solicitados</text><line style="stroke:#2196F3;stroke-width:3.125;" x1="550.1862" x2="593.9362" y1="775.4557" y2="775.4557"/><line style="stroke:#2196F3;stroke-width:3.125;" x1="593.9362" x2="593.9362" y1="775.4557" y2="788.9974"/><line style="stroke:#2196F3;stroke-width:3.125;" x1="551.2278" x2="593.9362" y1="788.9974" y2="788.9974"/><polygon fill="#2196F3" points="561.6445,784.8307,551.2278,788.9974,561.6445,793.1641,557.4778,788.9974" style="stroke:#2196F3;stroke-width:1.0416666666666667;"/><text fill="#222222" font-family="Verdana" font-size="12.5" lengthAdjust="spacing" textLength="262.4695" x="567.8945" y="745.4569">Analise de risco e elabora&#231;&#227;o de proposta</text><text fill="#222222" font-family="Verdana" font-size="12.5" lengthAdjust="spacing" textLength="182.4524" x="567.8945" y="760.0077">para portabilidade de cr&#233;dito</text><path d="M446.9818,804.6224 L759.7483,804.6224 L759.7483,831.6732 L749.3317,842.0898 L442.8151,842.0898 L442.8151,808.7891 A4.1667,4.1667 0 0 1 446.9818,804.6224 " fill="#FFFFFF" style="stroke:#666666;stroke-width:1.0416666666666667;"/><rect fill="none" height="240.3971" rx="4.1667" ry="4.1667" style="stroke:#2196F3;stroke-width:1.0416666666666667;" width="1026.7283" x="442.8151" y="804.6224"/><text fill="#9C27B0" font-family="Verdana" font-size="12.5" font-weight="bold" lengthAdjust="spacing" textLength="249.2249" x="468.8568" y="827.6835">Etapa da gest&#227;o de simultaneidade</text><path d="M1046.875,851.4648 L1046.875,902.5065 A4.1667,4.1667 0 0 0 1051.0417,906.6732 L1451.0417,906.6732 A4.1667,4.1667 0 0 0 1455.2083,902.5065 L1455.2083,857.7148 L1444.7917,847.2982 L1051.0417,847.2982 A4.1667,4.1667 0 0 0 1046.875,851.4648 " fill="url(#g8t88a6bgox722)" filter="url(#f8t88a6bgox72)" style="stroke:#9C27B0;stroke-width:1.0416666666666667;"/><path d="M1444.7917,847.2982 L1444.7917,855.6315 A2.0833,2.0833 0 0 0 1446.875,857.7148 L1455.2083,857.7148 L1444.7917,847.2982 " fill="url(#g8t88a6bgox722)" style="stroke:#9C27B0;stroke-width:1.0416666666666667;"/><text fill="#FFFFFF" font-family="Verdana" font-size="12.5" lengthAdjust="spacing" textLength="307.428" x="1063.5417" y="874.526">IF Credora &#233; respons&#225;vel por identificar se existe</text><text fill="#FFFFFF" font-family="Verdana" font-size="12.5" lengthAdjust="spacing" textLength="366.4185" x="1063.5417" y="889.0767">ou n&#227;o um pedido pr&#233;vio de portabilidade em andamento.</text><polygon fill="#2196F3" points="1029.54,968.0013,1039.9567,972.168,1029.54,976.3346,1033.7067,972.168" style="stroke:#2196F3;stroke-width:1.0416666666666667;"/><line style="stroke:#2196F3;stroke-width:3.125;" x1="550.1862" x2="1035.79" y1="972.168" y2="972.168"/><text fill="#222222" font-family="Verdana" font-size="12.5" lengthAdjust="spacing" textLength="314.4348" x="567.8945" y="942.1692">Confirma se contrato de empr&#233;stimo est&#225; eleg&#237;vel</text><text fill="#222222" font-family="Verdana" font-size="12.5" lengthAdjust="spacing" textLength="272.2168" x="567.8945" y="956.72">para solicita&#231;&#227;o de portabilidade de cr&#233;dito</text><polygon fill="#2196F3" points="561.6445,1032.5195,551.2278,1036.6862,561.6445,1040.8529,557.4778,1036.6862" style="stroke:#2196F3;stroke-width:1.0416666666666667;"/><line style="stroke:#2196F3;stroke-width:3.125;" x1="555.3945" x2="1040.9983" y1="1036.6862" y2="1036.6862"/><text fill="#222222" font-family="Verdana" font-size="12.5" lengthAdjust="spacing" textLength="337.5" x="578.3112" y="1006.6874">Retorna dados a respeito da elegibilidade do contrato</text><text fill="#222222" font-family="Verdana" font-size="12.5" lengthAdjust="spacing" textLength="272.2168" x="578.3112" y="1021.2382">para solicita&#231;&#227;o de portabilidade de cr&#233;dito</text><polygon fill="#2196F3" points="78.1891,1089.7786,67.7724,1093.9453,78.1891,1098.112,74.0224,1093.9453" style="stroke:#2196F3;stroke-width:1.0416666666666667;"/><line style="stroke:#2196F3;stroke-width:3.125;" x1="71.9391" x2="549.1445" y1="1093.9453" y2="1093.9453"/><text fill="#222222" font-family="Verdana" font-size="12.5" lengthAdjust="spacing" textLength="358.5571" x="94.8558" y="1078.4973">Retorna contratos eleg&#237;veis para portabilidade de cr&#233;dito</text><polygon fill="#2196F3" points="537.6862,1139.7461,548.1028,1143.9128,537.6862,1148.0794,541.8528,1143.9128" style="stroke:#2196F3;stroke-width:1.0416666666666667;"/><line style="stroke:#2196F3;stroke-width:3.125;" x1="66.7308" x2="543.9362" y1="1143.9128" y2="1143.9128"/><text fill="#222222" font-family="Verdana" font-size="12.5" lengthAdjust="spacing" textLength="437.6221" x="84.4391" y="1128.4648">Seleciona contrato para verificar proposta de portabilidade de cr&#233;dito</text><polygon fill="#2196F3" points="78.1891,1189.7135,67.7724,1193.8802,78.1891,1198.0469,74.0224,1193.8802" style="stroke:#2196F3;stroke-width:1.0416666666666667;"/><line style="stroke:#2196F3;stroke-width:3.125;" x1="71.9391" x2="549.1445" y1="1193.8802" y2="1193.8802"/><text fill="#222222" font-family="Verdana" font-size="12.5" lengthAdjust="spacing" textLength="295.4224" x="94.8558" y="1178.4322">Retorna proposta para portabilidade de cr&#233;dito</text><path d="M555.2083,1211.5885 L555.2083,1262.6302 A4.1667,4.1667 0 0 0 559.375,1266.7969 L1217.7083,1266.7969 A4.1667,4.1667 0 0 0 1221.875,1262.6302 L1221.875,1217.8385 L1211.4583,1207.4219 L559.375,1207.4219 A4.1667,4.1667 0 0 0 555.2083,1211.5885 " fill="url(#g8t88a6bgox722)" filter="url(#f8t88a6bgox72)" style="stroke:#9C27B0;stroke-width:1.0416666666666667;"/><path d="M1211.4583,1207.4219 L1211.4583,1215.7552 A2.0833,2.0833 0 0 0 1213.5417,1217.8385 L1221.875,1217.8385 L1211.4583,1207.4219 " fill="url(#g8t88a6bgox722)" style="stroke:#9C27B0;stroke-width:1.0416666666666667;"/><text fill="#FFFFFF" font-family="Verdana" font-size="12.5" lengthAdjust="spacing" textLength="623.9868" x="571.875" y="1234.6497">IF Proponente dever&#225; verificar se o valor da parcela ofertada &#233; superior ao valor da parcela original</text><text fill="#FFFFFF" font-family="Verdana" font-size="12.5" lengthAdjust="spacing" textLength="441.1682" x="571.875" y="1249.2004">em caso afirmativo dever&#225; ter o aceite do cliente antes de prosseguir.</text><polygon fill="#2196F3" points="537.6862,1313.5742,548.1028,1317.7409,537.6862,1321.9076,541.8528,1317.7409" style="stroke:#2196F3;stroke-width:1.0416666666666667;"/><line style="stroke:#2196F3;stroke-width:3.125;" x1="66.7308" x2="543.9362" y1="1317.7409" y2="1317.7409"/><text fill="#222222" font-family="Verdana" font-size="12.5" lengthAdjust="spacing" textLength="199.4934" x="84.4391" y="1302.2929">Solicita portabilidade de cr&#233;dito</text><path d="M25,1333.3659 L330.2409,1333.3659 L330.2409,1360.4167 L319.8242,1370.8333 L20.8333,1370.8333 L20.8333,1337.5326 A4.1667,4.1667 0 0 1 25,1333.3659 " fill="#FFFFFF" style="stroke:#666666;stroke-width:1.0416666666666667;"/><rect fill="none" height="137.4023" rx="4.1667" ry="4.1667" style="stroke:#2196F3;stroke-width:1.0416666666666667;" width="636.7238" x="20.8333" y="1333.3659"/><text fill="#9C27B0" font-family="Verdana" font-size="12.5" font-weight="bold" lengthAdjust="spacing" textLength="241.6992" x="46.875" y="1356.427">Etapa para assinatura do contrato</text><polygon fill="#2196F3" points="78.1891,1408.3008,67.7724,1412.4674,78.1891,1416.6341,74.0224,1412.4674" style="stroke:#2196F3;stroke-width:1.0416666666666667;"/><line style="stroke:#2196F3;stroke-width:3.125;" x1="71.9391" x2="549.1445" y1="1412.4674" y2="1412.4674"/><text fill="#222222" font-family="Verdana" font-size="12.5" lengthAdjust="spacing" textLength="237.5305" x="94.8558" y="1397.0194">Disponibiliza contrato para assinatura</text><polygon fill="#2196F3" points="537.6862,1458.2682,548.1028,1462.4349,537.6862,1466.6016,541.8528,1462.4349" style="stroke:#2196F3;stroke-width:1.0416666666666667;"/><line style="stroke:#2196F3;stroke-width:3.125;" x1="66.7308" x2="543.9362" y1="1462.4349" y2="1462.4349"/><text fill="#222222" font-family="Verdana" font-size="12.5" lengthAdjust="spacing" textLength="284.6558" x="84.4391" y="1446.9869">Confirma o aceite da portabilidade de cr&#233;dito</text><path d="M446.9818,1485.3516 L785.9812,1485.3516 L785.9812,1512.4023 L775.5646,1522.819 L442.8151,1522.819 L442.8151,1489.5182 A4.1667,4.1667 0 0 1 446.9818,1485.3516 " fill="#FFFFFF" style="stroke:#666666;stroke-width:1.0416666666666667;"/><rect fill="none" height="225.8464" rx="4.1667" ry="4.1667" style="stroke:#2196F3;stroke-width:1.0416666666666667;" width="852.2675" x="442.8151" y="1485.3516"/><text fill="#9C27B0" font-family="Verdana" font-size="12.5" font-weight="bold" lengthAdjust="spacing" textLength="275.4578" x="468.8568" y="1508.4127">Solicita&#231;&#227;o da Portabilidade de Cr&#233;dito</text><path d="M555.2083,1532.194 L555.2083,1597.819 A4.1667,4.1667 0 0 0 559.375,1601.9857 L1277.0833,1601.9857 A4.1667,4.1667 0 0 0 1281.25,1597.819 L1281.25,1538.444 L1270.8333,1528.0273 L559.375,1528.0273 A4.1667,4.1667 0 0 0 555.2083,1532.194 " fill="url(#g8t88a6bgox722)" filter="url(#f8t88a6bgox72)" style="stroke:#9C27B0;stroke-width:1.0416666666666667;"/><path d="M1270.8333,1528.0273 L1270.8333,1536.3607 A2.0833,2.0833 0 0 0 1272.9167,1538.444 L1281.25,1538.444 L1270.8333,1528.0273 " fill="url(#g8t88a6bgox722)" style="stroke:#9C27B0;stroke-width:1.0416666666666667;"/><text fill="#FFFFFF" font-family="Verdana" font-size="12.5" lengthAdjust="spacing" textLength="168.689" x="571.875" y="1555.2551">Conforme sugerido em GT,</text><text fill="#FFFFFF" font-family="Verdana" font-size="12.5" lengthAdjust="spacing" textLength="679.6509" x="571.875" y="1569.8059">o intervalo de hor&#225;rio para a contagem dos tr&#234;s dias &#250;teis da IF Credora deve considerar o seguinte hor&#225;rio:</text><text fill="#FFFFFF" font-family="Verdana" font-size="12.5" lengthAdjust="spacing" textLength="185.3333" x="571.875" y="1584.3567">in&#237;cio: 7h, encerramento: 16h</text><polygon fill="#2196F3" points="1029.54,1648.7305,1039.9567,1652.8971,1029.54,1657.0638,1033.7067,1652.8971" style="stroke:#2196F3;stroke-width:1.0416666666666667;"/><line style="stroke:#2196F3;stroke-width:3.125;" x1="550.1862" x2="1035.79" y1="1652.8971" y2="1652.8971"/><text fill="#222222" font-family="Verdana" font-size="12.5" lengthAdjust="spacing" textLength="199.0967" x="567.8945" y="1637.4491">Solicita Portabilidade de cr&#233;dito</text><polygon fill="#2196F3" points="561.6445,1698.6979,551.2278,1702.8646,561.6445,1707.0313,557.4778,1702.8646" style="stroke:#2196F3;stroke-width:1.0416666666666667;"/><line style="stroke:#2196F3;stroke-width:3.125;" x1="555.3945" x2="1040.9983" y1="1702.8646" y2="1702.8646"/><text fill="#222222" font-family="Verdana" font-size="12.5" lengthAdjust="spacing" textLength="313.8855" x="578.3112" y="1687.4166">Confirma recebimento da portabilidade de cr&#233;dito</text><path d="M25,1725.7813 L410.0382,1725.7813 L410.0382,1752.832 L399.6216,1763.2487 L20.8333,1763.2487 L20.8333,1729.9479 A4.1667,4.1667 0 0 1 25,1725.7813 " fill="#FFFFFF" style="stroke:#666666;stroke-width:1.0416666666666667;"/><rect fill="none" height="441.3086" rx="4.1667" ry="4.1667" style="stroke:#2196F3;stroke-width:1.0416666666666667;" width="1489.8417" x="20.8333" y="1725.7813"/><text fill="#9C27B0" font-family="Verdana" font-size="12.5" font-weight="bold" lengthAdjust="spacing" textLength="321.4966" x="46.875" y="1748.8424">Etapa para an&#225;lise e envio da contraproposta</text><path d="M1046.875,1772.6237 L1046.875,1823.6654 A4.1667,4.1667 0 0 0 1051.0417,1827.832 L1492.7083,1827.832 A4.1667,4.1667 0 0 0 1496.875,1823.6654 L1496.875,1778.8737 L1486.4583,1768.457 L1051.0417,1768.457 A4.1667,4.1667 0 0 0 1046.875,1772.6237 " fill="url(#g8t88a6bgox722)" filter="url(#f8t88a6bgox72)" style="stroke:#9C27B0;stroke-width:1.0416666666666667;"/><path d="M1486.4583,1768.457 L1486.4583,1776.7904 A2.0833,2.0833 0 0 0 1488.5417,1778.8737 L1496.875,1778.8737 L1486.4583,1768.457 " fill="url(#g8t88a6bgox722)" style="stroke:#9C27B0;stroke-width:1.0416666666666667;"/><text fill="#FFFFFF" font-family="Verdana" font-size="12.5" lengthAdjust="spacing" textLength="311.1206" x="1063.5417" y="1795.6848">Segundo o escopo disponibilizado pelo regulador,</text><text fill="#FFFFFF" font-family="Verdana" font-size="12.5" lengthAdjust="spacing" textLength="403.5767" x="1067.5151" y="1810.2356">a IF Credora tem at&#233; 3 dias &#250;teis para realizar a contraproposta.</text><line style="stroke:#2196F3;stroke-width:3.125;" x1="1042.04" x2="1085.79" y1="1893.3268" y2="1893.3268"/><line style="stroke:#2196F3;stroke-width:3.125;" x1="1085.79" x2="1085.79" y1="1893.3268" y2="1906.8685"/><line style="stroke:#2196F3;stroke-width:3.125;" x1="1043.0817" x2="1085.79" y1="1906.8685" y2="1906.8685"/><polygon fill="#2196F3" points="1053.4983,1902.7018,1043.0817,1906.8685,1053.4983,1911.0352,1049.3317,1906.8685" style="stroke:#2196F3;stroke-width:1.0416666666666667;"/><text fill="#222222" font-family="Verdana" font-size="12.5" lengthAdjust="spacing" textLength="228.7231" x="1059.7483" y="1863.328">Analise do Pedido de Portabilidade e</text><text fill="#222222" font-family="Verdana" font-size="12.5" lengthAdjust="spacing" textLength="179.3274" x="1059.7483" y="1877.8788">periodo para contraproposta</text><polygon fill="#2196F3" points="78.1891,1952.6693,67.7724,1956.8359,78.1891,1961.0026,74.0224,1956.8359" style="stroke:#2196F3;stroke-width:1.0416666666666667;"/><line style="stroke:#2196F3;stroke-width:3.125;" x1="71.9391" x2="1040.9983" y1="1956.8359" y2="1956.8359"/><text fill="#222222" font-family="Verdana" font-size="12.5" lengthAdjust="spacing" textLength="153.3997" x="94.8558" y="1941.3879">Envio da contraproposta</text><path d="M71.875,1974.5443 L71.875,2040.1693 A4.1667,4.1667 0 0 0 76.0417,2044.3359 L694.7917,2044.3359 A4.1667,4.1667 0 0 0 698.9583,2040.1693 L698.9583,1980.7943 L688.5417,1970.3776 L76.0417,1970.3776 A4.1667,4.1667 0 0 0 71.875,1974.5443 " fill="url(#g8t88a6bgox722)" filter="url(#f8t88a6bgox72)" style="stroke:#9C27B0;stroke-width:1.0416666666666667;"/><path d="M688.5417,1970.3776 L688.5417,1978.7109 A2.0833,2.0833 0 0 0 690.625,1980.7943 L698.9583,1980.7943 L688.5417,1970.3776 " fill="url(#g8t88a6bgox722)" style="stroke:#9C27B0;stroke-width:1.0416666666666667;"/><text fill="#FFFFFF" font-family="Verdana" font-size="12.5" lengthAdjust="spacing" textLength="337.1216" x="88.5417" y="1997.6054">Cen&#225;rio onde o cliente N&#195;O ACEITA a contraproposta:</text><text fill="#FFFFFF" font-family="Verdana" font-size="12.5" lengthAdjust="spacing" textLength="580.8655" x="92.5151" y="2012.1562">- A IF Credora poder&#225; contatar o cliente por qualquer canal dispon&#237;vel (e-mail, telefone, etc.)</text><text fill="#FFFFFF" font-family="Verdana" font-size="12.5" lengthAdjust="spacing" textLength="455.1331" x="92.5151" y="2026.7069">- O Cliente deve aceitar a contraproposta no Canal Digital da IF Credora.</text><polygon fill="#2196F3" points="1029.54,2091.0807,1039.9567,2095.2474,1029.54,2099.4141,1033.7067,2095.2474" style="stroke:#2196F3;stroke-width:1.0416666666666667;"/><line style="stroke:#2196F3;stroke-width:3.125;" x1="66.7308" x2="1035.79" y1="2095.2474" y2="2095.2474"/><text fill="#222222" font-family="Verdana" font-size="12.5" lengthAdjust="spacing" textLength="297.0398" x="84.4391" y="2079.7994">N&#227;o aceito da contraproposta pelo canal digital</text><line style="stroke:#2196F3;stroke-width:3.125;" x1="550.1862" x2="593.9362" y1="2145.2148" y2="2145.2148"/><line style="stroke:#2196F3;stroke-width:3.125;" x1="593.9362" x2="593.9362" y1="2145.2148" y2="2158.7565"/><line style="stroke:#2196F3;stroke-width:3.125;" x1="551.2278" x2="593.9362" y1="2158.7565" y2="2158.7565"/><polygon fill="#2196F3" points="561.6445,2154.5898,551.2278,2158.7565,561.6445,2162.9232,557.4778,2158.7565" style="stroke:#2196F3;stroke-width:1.0416666666666667;"/><text fill="#222222" font-family="Verdana" font-size="12.5" lengthAdjust="spacing" textLength="307.6172" x="567.8945" y="2129.7668">Aguarda retorno da institui&#231;&#227;o credora por 3 d.u.</text><path d="M446.9818,2181.6732 L930.5308,2181.6732 L930.5308,2208.724 L920.1141,2219.1406 L442.8151,2219.1406 L442.8151,2185.8398 A4.1667,4.1667 0 0 1 446.9818,2181.6732 " fill="#FFFFFF" style="stroke:#666666;stroke-width:1.0416666666666667;"/><rect fill="none" height="325.7813" rx="4.1667" ry="4.1667" style="stroke:#2196F3;stroke-width:1.0416666666666667;" width="904.5319" x="442.8151" y="2181.6732"/><text fill="#9C27B0" font-family="Verdana" font-size="12.5" font-weight="bold" lengthAdjust="spacing" textLength="420.0073" x="468.8568" y="2204.7343">Etapa para atualiza&#231;&#227;o do saldo devedor e dados banc&#225;rios</text><path d="M555.2083,2228.5156 L555.2083,2294.1406 A4.1667,4.1667 0 0 0 559.375,2298.3073 L1329.1667,2298.3073 A4.1667,4.1667 0 0 0 1333.3333,2294.1406 L1333.3333,2234.7656 L1322.9167,2224.349 L559.375,2224.349 A4.1667,4.1667 0 0 0 555.2083,2228.5156 " fill="url(#g8t88a6bgox722)" filter="url(#f8t88a6bgox72)" style="stroke:#9C27B0;stroke-width:1.0416666666666667;"/><path d="M1322.9167,2224.349 L1322.9167,2232.6823 A2.0833,2.0833 0 0 0 1325,2234.7656 L1333.3333,2234.7656 L1322.9167,2224.349 " fill="url(#g8t88a6bgox722)" style="stroke:#9C27B0;stroke-width:1.0416666666666667;"/><text fill="#FFFFFF" font-family="Verdana" font-size="12.5" lengthAdjust="spacing" textLength="345.7092" x="571.875" y="2251.5767">Conforme sugerido no GT de portabiliadade de cr&#233;dito,</text><text fill="#FFFFFF" font-family="Verdana" font-size="12.5" lengthAdjust="spacing" textLength="507.6355" x="571.875" y="2266.1275">se a IF Credora n&#227;o responder em at&#233; 3 dias &#250;teis conforme previsto em escopo,</text><text fill="#FFFFFF" font-family="Verdana" font-size="12.5" lengthAdjust="spacing" textLength="735.8887" x="571.875" y="2280.6783">a IF Proponente atualizar&#225; o saldo devedor e realizar&#225; a liquida&#231;&#227;o considerando um aceite compuls&#243;rio no 4 dia &#250;til.</text><polygon fill="#2196F3" points="1029.54,2345.0521,1039.9567,2349.2188,1029.54,2353.3854,1033.7067,2349.2188" style="stroke:#2196F3;stroke-width:1.0416666666666667;"/><line style="stroke:#2196F3;stroke-width:3.125;" x1="550.1862" x2="1035.79" y1="2349.2188" y2="2349.2188"/><text fill="#222222" font-family="Verdana" font-size="12.5" lengthAdjust="spacing" textLength="316.6321" x="567.8945" y="2333.7708">Consulta saldo devedor atualizado para liquida&#231;&#227;o</text><polygon fill="#2196F3" points="561.6445,2395.0195,551.2278,2399.1862,561.6445,2403.3529,557.4778,2399.1862" style="stroke:#2196F3;stroke-width:1.0416666666666667;"/><line style="stroke:#2196F3;stroke-width:3.125;" x1="555.3945" x2="1040.9983" y1="2399.1862" y2="2399.1862"/><text fill="#222222" font-family="Verdana" font-size="12.5" lengthAdjust="spacing" textLength="256.1035" x="578.3112" y="2383.7382">Retorna saldo atualizado para liquida&#231;&#227;o</text><polygon fill="#2196F3" points="1029.54,2444.987,1039.9567,2449.1536,1029.54,2453.3203,1033.7067,2449.1536" style="stroke:#2196F3;stroke-width:1.0416666666666667;"/><line style="stroke:#2196F3;stroke-width:3.125;" x1="550.1862" x2="1035.79" y1="2449.1536" y2="2449.1536"/><text fill="#222222" font-family="Verdana" font-size="12.5" lengthAdjust="spacing" textLength="261.615" x="567.8945" y="2433.7056">Consulta dados banc&#225;rios para liquida&#231;&#227;o</text><polygon fill="#2196F3" points="561.6445,2494.9544,551.2278,2499.1211,561.6445,2503.2878,557.4778,2499.1211" style="stroke:#2196F3;stroke-width:1.0416666666666667;"/><line style="stroke:#2196F3;stroke-width:3.125;" x1="555.3945" x2="1040.9983" y1="2499.1211" y2="2499.1211"/><text fill="#222222" font-family="Verdana" font-size="12.5" lengthAdjust="spacing" textLength="256.4941" x="578.3112" y="2483.6731">Retorna dados banc&#225;rios para liquida&#231;&#227;o</text><path d="M446.9818,2522.0378 L894.0745,2522.0378 L894.0745,2549.0885 L883.6578,2559.5052 L442.8151,2559.5052 L442.8151,2526.2044 A4.1667,4.1667 0 0 1 446.9818,2522.0378 " fill="#FFFFFF" style="stroke:#666666;stroke-width:1.0416666666666667;"/><rect fill="none" height="146.7773" rx="4.1667" ry="4.1667" style="stroke:#2196F3;stroke-width:1.0416666666666667;" width="1003.0731" x="442.8151" y="2522.0378"/><text fill="#9C27B0" font-family="Verdana" font-size="12.5" font-weight="bold" lengthAdjust="spacing" textLength="383.551" x="468.8568" y="2545.0989">Etapa para informar a respeito da liquida&#231;&#227;o efetuada</text><path d="M555.2083,2568.8802 L555.2083,2605.3385 A4.1667,4.1667 0 0 0 559.375,2609.5052 L1428.125,2609.5052 A4.1667,4.1667 0 0 0 1432.2917,2605.3385 L1432.2917,2575.1302 L1421.875,2564.7135 L559.375,2564.7135 A4.1667,4.1667 0 0 0 555.2083,2568.8802 " fill="url(#g8t88a6bgox722)" filter="url(#f8t88a6bgox72)" style="stroke:#9C27B0;stroke-width:1.0416666666666667;"/><path d="M1421.875,2564.7135 L1421.875,2573.0469 A2.0833,2.0833 0 0 0 1423.9583,2575.1302 L1432.2917,2575.1302 L1421.875,2564.7135 " fill="url(#g8t88a6bgox722)" style="stroke:#9C27B0;stroke-width:1.0416666666666667;"/><text fill="#FFFFFF" font-family="Verdana" font-size="12.5" lengthAdjust="spacing" textLength="834.4299" x="571.875" y="2591.9413">Conforme sugerido em GT, caso o pagamento ocorra ap&#243;s as 18h, o prazo de 2 dias &#250;teis come&#231;a a contar no pr&#243;ximo dia &#250;til (D+1)</text><polygon fill="#2196F3" points="1029.54,2656.3151,1039.9567,2660.4818,1029.54,2664.6484,1033.7067,2660.4818" style="stroke:#2196F3;stroke-width:1.0416666666666667;"/><line style="stroke:#2196F3;stroke-width:3.125;" x1="550.1862" x2="1035.79" y1="2660.4818" y2="2660.4818"/><text fill="#222222" font-family="Verdana" font-size="12.5" lengthAdjust="spacing" textLength="391.9006" x="567.8945" y="2645.0338">Informa a respeito da liquida&#231;&#227;o realizada via TED do contrato</text><path d="M446.9818,2683.3984 L875.0498,2683.3984 L875.0498,2710.4492 L864.6332,2720.8659 L442.8151,2720.8659 L442.8151,2687.5651 A4.1667,4.1667 0 0 1 446.9818,2683.3984 " fill="#FFFFFF" style="stroke:#666666;stroke-width:1.0416666666666667;"/><rect fill="none" height="541.2435" rx="4.1667" ry="4.1667" style="stroke:#2196F3;stroke-width:1.0416666666666667;" width="1868.9494" x="442.8151" y="2683.3984"/><text fill="#9C27B0" font-family="Verdana" font-size="12.5" font-weight="bold" lengthAdjust="spacing" textLength="364.5264" x="468.8568" y="2706.4596">Etapa para validar e quitar contrato de empr&#233;stimo</text><path d="M1046.875,2730.2409 L1046.875,2781.2826 A4.1667,4.1667 0 0 0 1051.0417,2785.4492 L1686.4583,2785.4492 A4.1667,4.1667 0 0 0 1690.625,2781.2826 L1690.625,2736.4909 L1680.2083,2726.0742 L1051.0417,2726.0742 A4.1667,4.1667 0 0 0 1046.875,2730.2409 " fill="url(#g8t88a6bgox722)" filter="url(#f8t88a6bgox72)" style="stroke:#9C27B0;stroke-width:1.0416666666666667;"/><path d="M1680.2083,2726.0742 L1680.2083,2734.4076 A2.0833,2.0833 0 0 0 1682.2917,2736.4909 L1690.625,2736.4909 L1680.2083,2726.0742 " fill="url(#g8t88a6bgox722)" style="stroke:#9C27B0;stroke-width:1.0416666666666667;"/><text fill="#FFFFFF" font-family="Verdana" font-size="12.5" lengthAdjust="spacing" textLength="311.1206" x="1063.5417" y="2753.302">Segundo o escopo disponibilizado pelo regulador,</text><text fill="#FFFFFF" font-family="Verdana" font-size="12.5" lengthAdjust="spacing" textLength="597.3633" x="1067.5151" y="2767.8528">a IF Credora tem at&#233; 2 dias &#250;teis para fornecer o documento de quita&#231;&#227;o para a IF proponente.</text><line style="stroke:#2196F3;stroke-width:3.125;" x1="1042.04" x2="1085.79" y1="2836.3932" y2="2836.3932"/><line style="stroke:#2196F3;stroke-width:3.125;" x1="1085.79" x2="1085.79" y1="2836.3932" y2="2849.9349"/><line style="stroke:#2196F3;stroke-width:3.125;" x1="1043.0817" x2="1085.79" y1="2849.9349" y2="2849.9349"/><polygon fill="#2196F3" points="1053.4983,2845.7682,1043.0817,2849.9349,1053.4983,2854.1016,1049.3317,2849.9349" style="stroke:#2196F3;stroke-width:1.0416666666666667;"/><text fill="#222222" font-family="Verdana" font-size="12.5" lengthAdjust="spacing" textLength="430.2856" x="1059.7483" y="2820.9452">Analise a respeito do pagamento recebido pela quita&#231;&#227;o do contrato</text><polygon fill="#2196F3" points="561.6445,2895.7357,551.2278,2899.9023,561.6445,2904.069,557.4778,2899.9023" style="stroke:#2196F3;stroke-width:1.0416666666666667;"/><line style="stroke:#2196F3;stroke-width:3.125;" x1="555.3945" x2="1040.9983" y1="2899.9023" y2="2899.9023"/><text fill="#222222" font-family="Verdana" font-size="12.5" lengthAdjust="spacing" textLength="446.0205" x="578.3112" y="2884.4543">Informa o n&#227;o reconhecimento do pagamento por parte da proponente</text><path d="M1046.875,2917.6107 L1046.875,2997.819 A4.1667,4.1667 0 0 0 1051.0417,3001.9857 L2122.9167,3001.9857 A4.1667,4.1667 0 0 0 2127.0833,2997.819 L2127.0833,2923.8607 L2116.6667,2913.444 L1051.0417,2913.444 A4.1667,4.1667 0 0 0 1046.875,2917.6107 " fill="url(#g8t88a6bgox722)" filter="url(#f8t88a6bgox72)" style="stroke:#9C27B0;stroke-width:1.0416666666666667;"/><path d="M2116.6667,2913.444 L2116.6667,2921.7773 A2.0833,2.0833 0 0 0 2118.75,2923.8607 L2127.0833,2923.8607 L2116.6667,2913.444 " fill="url(#g8t88a6bgox722)" style="stroke:#9C27B0;stroke-width:1.0416666666666667;"/><text fill="#FFFFFF" font-family="Verdana" font-size="12.5" lengthAdjust="spacing" textLength="345.7092" x="1063.5417" y="2940.6718">Conforme sugerido no GT de portabiliadade de cr&#233;dito,</text><text fill="#FFFFFF" font-family="Verdana" font-size="12.5" lengthAdjust="spacing" textLength="627.9602" x="1063.5417" y="2955.2226">se a IF Credora n&#227;o reconhecer o valor pago para quita&#231;&#227;o ou qualquer outro ponto de discord&#226;ncia</text><text fill="#FFFFFF" font-family="Verdana" font-size="12.5" lengthAdjust="spacing" textLength="578.5767" x="1063.5417" y="2969.7734">afim de facilitar a comunica&#231;&#227;o entre as partes e garantir um processo flu&#237;do dentro do OFB</text><text fill="#FFFFFF" font-family="Verdana" font-size="12.5" lengthAdjust="spacing" textLength="1038.2446" x="1063.5417" y="2984.3241">foi sugerido um sistema para trocas de mensagens entre as IFs Credora e Proponente para auxiliar no processo de liquida&#231;&#227;o e quita&#231;&#227;o do contrato de empr&#233;stimo.</text><polygon fill="#2196F3" points="2081.2612,3048.6979,2091.6779,3052.8646,2081.2612,3057.0313,2085.4279,3052.8646" style="stroke:#2196F3;stroke-width:1.0416666666666667;"/><line style="stroke:#2196F3;stroke-width:3.125;" x1="1507.7423" x2="2087.5112" y1="3052.8646" y2="3052.8646"/><text fill="#222222" font-family="Verdana" font-size="12.5" lengthAdjust="spacing" textLength="361.9019" x="1525.4506" y="3037.4166">envia mensagens explicando a inconsist&#234;ncia encontrada</text><polygon fill="#2196F3" points="1519.2006,3098.6654,1508.784,3102.832,1519.2006,3106.9987,1515.034,3102.832" style="stroke:#2196F3;stroke-width:1.0416666666666667;"/><line style="stroke:#2196F3;stroke-width:3.125;" x1="1512.9506" x2="2092.7195" y1="3102.832" y2="3102.832"/><text fill="#222222" font-family="Verdana" font-size="12.5" lengthAdjust="spacing" textLength="540.1855" x="1535.8673" y="3087.384">envia mensagens explicando ponto de vista ou complemento do pagamento efetuado</text><line style="stroke:#2196F3;stroke-width:3.125;" x1="1042.04" x2="1085.79" y1="3152.7995" y2="3152.7995"/><line style="stroke:#2196F3;stroke-width:3.125;" x1="1085.79" x2="1085.79" y1="3152.7995" y2="3166.3411"/><line style="stroke:#2196F3;stroke-width:3.125;" x1="1043.0817" x2="1085.79" y1="3166.3411" y2="3166.3411"/><polygon fill="#2196F3" points="1053.4983,3162.1745,1043.0817,3166.3411,1053.4983,3170.5078,1049.3317,3166.3411" style="stroke:#2196F3;stroke-width:1.0416666666666667;"/><text fill="#222222" font-family="Verdana" font-size="12.5" lengthAdjust="spacing" textLength="430.2856" x="1059.7483" y="3137.3515">Analise a respeito do pagamento recebido pela quita&#231;&#227;o do contrato</text><polygon fill="#2196F3" points="561.6445,3212.1419,551.2278,3216.3086,561.6445,3220.4753,557.4778,3216.3086" style="stroke:#2196F3;stroke-width:1.0416666666666667;"/><line style="stroke:#2196F3;stroke-width:3.125;" x1="555.3945" x2="1040.9983" y1="3216.3086" y2="3216.3086"/><text fill="#222222" font-family="Verdana" font-size="12.5" lengthAdjust="spacing" textLength="399.8535" x="578.3112" y="3200.8606">Confirma recebimento e fornece recibo de quita&#231;&#227;o do contrato</text><polygon fill="#2196F3" points="2403.9886,3269.401,2414.4053,3273.5677,2403.9886,3277.7344,2408.1553,3273.5677" style="stroke:#2196F3;stroke-width:1.0416666666666667;"/><line style="stroke:#2196F3;stroke-width:3.125;" x1="1042.04" x2="2410.2386" y1="3273.5677" y2="3273.5677"/><text fill="#222222" font-family="Verdana" font-size="12.5" lengthAdjust="spacing" textLength="453.0457" x="1059.7483" y="3258.1197">Reporta informa&#231;&#245;es a respeito dos pedidos de portabilidade solicitados</text><polygon fill="#2196F3" points="2403.9886,3319.3685,2414.4053,3323.5352,2403.9886,3327.7018,2408.1553,3323.5352" style="stroke:#2196F3;stroke-width:1.0416666666666667;"/><line style="stroke:#2196F3;stroke-width:3.125;" x1="550.1862" x2="2410.2386" y1="3323.5352" y2="3323.5352"/><text fill="#222222" font-family="Verdana" font-size="12.5" lengthAdjust="spacing" textLength="453.0457" x="567.8945" y="3308.0872">Reporta informa&#231;&#245;es a respeito dos pedidos de portabilidade solicitados</text><!--SRC=[rLcxRXmt5EttAnXLDY8jO3j80XK1z3JKM48af593SRWh0ZFacEG8WjjyYPF2i05LHXgtysCvbvptFiUI40HIiJCxSv_dddilzmT_ApF9CkwbLNpYbKybkp3MynkLgeGdak7_o9QV4-KDssFdkTJiL6ckXMI7bZkLiXVdfuSlh_LfMjmR9aoMfnBFuZqvarxTyV9J-JUkESjxWeNHJYNISfqOPXWNKdaPtYzILtwroZ1jsFk2MvAcEBlMRE6jML2AZquvBpDEQZd9uFgMPr97Gt8-ZnTkmeKtbkqSfGhNSeTnnqJyF9diYFhktc-CxPnfXu0KAjf_hI-ioOsE3-opFn2ncHBGg1nkgsx0yc44HHN1oToQ8cSddkS81xUStN5wgWgH2Uv1WmhMJjQQiDJ68oiJOpaPU0HHHUgXHzfCEQTmlQ22pOpLKYZSpsLgcbYi5Wor6oBpEz9lDGB34-COPrQwN19y5fJJ4tszKYUJnI29sXKIY0jlEN8P89Rb22sioHuPhKkJAg6WGfVVCca3R5fDTqgB8YLh-TF4wAWHRIKGy85lJC1tEPD8pzEc47h1kzRdXvVJ5YKoOsyOmfyRfRqZL7iLAkOfe12IrPhY1hQuobxSZGWOxtrVxu56K5qeFQkSC20EcV8RM5rL6cgKNd2UQ2LWR7NDzl086fjBvoiXJcKKF2t3MnDjF2cSttfcPcipT7RAgYjMVWuLWZoK7-zaIeOmC1oAXEZ5ChWXxudT8C4Km2Ta5HdGaeIgXPLtoYoo3l89ZepndZwQIMRAWbnTMnE3ucCKauy8ifoN3-H55TKwistOLuRvUIY71viwx6nQ5yRRk1KuspRIiQm5UnqZvTW6u8tgHvUGAy3nhQggmLHzohQ87vU6RRnhH6_mQ4E1z3r2ZRGt80QU06AjFq2ZeVw9Uac2Pe4QXrm9xKceArUWzobypvSz23imoAJN6gKYk0Et1vHZP36DDin5xMoIDFICqlBILJJYd9mNoav7vglcw3N4izW9EVguvhwml8laSKaxRWUM3qEqjFB7UTDGH1iilgcEedEN_UhZgyVFSUWXYup5SEkAEK20Q27DRwzsYKKPEfkqX0YIVskGQHetOmH2HFWSJnENU5j-eMw8ER7yvgbeOMA7lGaexL1AO0be88pKSlUXKkdoGT37NsvtqMM5j3PIypvxzVFjvlojvCOkaYwUWLkxkRLIo9jcTDiklLtiwl9ZwChuqw5drUYhwMD40xr4bECA8D7VSzCTmzjfok8f6jliBfQ7NjuyzKSFZdZJIsumj1h9B1lQDnqPo6wMcf74i8lOkfFXgaKTFX1MOfgvjnkTzSgx9NwoNNoRLv1agMCH69qGhzP4zwxyyvmT79sSNHqiX6CVGTrZ1zsmvYO9l1bgo8Twg2NHN8DjBdrVW5C5HpYgdCM1uONSoxXATv6PLCu0FzI95zENGSSvgnQsM6-1OfRaXnR6eo3v6DpkIKCtwGE6NfkkTtGhw5aInsfKhtm8ciQNyA3A3kROT1C27xNKe5JrtX1DY2s1TbfCLzMPBm9-cwNIyJI9BGq2cAocf1liy27bxh742clVNlMc2Zwa1A9TWBzNWc6IZQClGCEM5wIejULMtc4A3ZGUIvvayi6KKFjE65nql2viVCbPgjuNpUhTErR0TBtYDEAdS101qrGwVHnfDtjNtyRQ_fe1kaO-ZiNhKItg6wVdknmRekov7Df2p_8wKG5PWKQw-q8F5tI4LG3DJpHxX37JjETHp0XZgMJpygkZiwXNls8-eAsEVmWDulMW639PVcfc54kGn0hszPusi0QPxCNnZwzUFYwBPp4swq9J7rnWnO3cgvFZtaIwFEJnj8jA4OB8WHNhv7yn2BnU70JYuLXO0H8ZYkOyCHWVRQbcHWZCc_0-nPZGFpPh0HDdiEWMxngoTXqOKrTrwarDq11xYzMoFaJg64Ej206eflr6p6H4-fwwcqHZGyhYnWThgonrWcMATXGnXRVaIfNRXCwBR5B-fONYQ30pbT7j6HUmf1uwia9Z1Qqe0a6NLBiX4jZlsHpQj5Ss7DDO8wHpuQIwV0XChqaVFfsV7iAFcL6jxtYXFiWE9kD9K0RfHy0TbXBjMdrdfwxnNdQROCHaSK-XgpYYCWA2-lIs0a63SWIWBxSxNnzYRVlN-WnA2mBlEdsVOya9tPc8ExHhvyilb2JQfuBTeEdlL3ZEr0vyrzZP88h65awGYx-DBAcZgikO_pLlB5qJPSsXT5VT3DbpeMEiju0gviHvMz01HJK419QeUpdU-aSEVdDmrL6fMpptwfuxRsoNpwZyNm00]--></g></svg>